<svg width="512" height="512" viewBox="0 0 512 512" fill="none" xmlns="http://www.w3.org/2000/svg">
<g clip-path="url(#clip0)">
<path d="M312 420C336.992 444.992 377.752 447.504 400 420L312 332C289.752 359.504 287.008 395.008 312 420Z" fill="#EF3A42"/>
<path d="M86.7299 424C111.722 448.992 152.482 451.504 174.73 424L86.7299 336C64.4819 363.504 61.7379 399.008 86.7299 424Z" fill="#EF3A42"/>
<path d="M141 291.697C116.008 266.705 75.248 264.193 53 291.697L141 379.697C163.248 352.193 165.992 316.689 141 291.697Z" fill="#EF3A42"/>
<path d="M366 281.697C341.008 256.705 300.248 254.193 278 281.697L366 369.697C388.248 342.193 390.992 306.689 366 281.697Z" fill="#EF3A42"/>
<path d="M135.697 193.73C110.705 218.722 108.193 259.482 135.697 281.73L223.697 193.73C196.193 171.482 160.689 168.738 135.697 193.73Z" fill="#EF3A42"/>
<path d="M296.864 186.949C277.394 157.452 237.966 146.814 210.653 169.296L279.211 273.16C306.524 250.678 316.335 216.447 296.864 186.949Z" fill="#EF3A42"/>
<path d="M327.121 251.39C352.223 276.271 392.994 278.602 415.12 250.999L326.73 163.391C304.604 190.994 302.018 226.509 327.121 251.39Z" fill="#EF3A42"/>
<path d="M451.204 334.962C448.979 299.688 420.062 270.853 385.185 276.776L393.019 400.98C427.895 395.057 453.429 370.236 451.204 334.962Z" fill="#EF3A42"/>
<path d="M430.204 144.962C427.979 109.688 399.062 80.8534 364.185 86.777L372.019 210.981C406.895 205.057 432.429 180.236 430.204 144.962Z" fill="#EF3A42"/>
<path d="M57.9057 184.882C40.9975 215.919 50.1096 255.727 82.7808 269.293L142.317 160.007C109.646 146.441 74.8139 153.845 57.9057 184.882Z" fill="#EF3A42"/>
<path d="M197.18 97.2181C163.023 106.303 140.405 140.305 153.04 173.348L273.309 141.357C260.674 108.315 231.336 88.1328 197.18 97.2181Z" fill="#EF3A42"/>
<path d="M330.96 389.76C327.469 384.508 326.052 378.147 326.983 371.91C327.914 365.673 331.128 360.003 336 356L376 396C372.014 400.871 366.358 404.085 360.132 405.017C353.907 405.948 347.558 404.531 342.32 401.04L330.96 389.76Z" fill="#FF6B51"/>
<path d="M105.69 393.76C102.199 388.508 100.782 382.147 101.713 375.91C102.644 369.673 105.857 364.003 110.73 360L150.73 400C146.743 404.871 141.087 408.085 134.862 409.017C128.637 409.948 122.288 408.531 117.05 405.04L105.69 393.76Z" fill="#FF6B51"/>
<path d="M121.981 321.889C125.472 327.141 126.889 333.501 125.958 339.739C125.027 345.976 121.814 351.645 116.941 355.649L76.9411 315.649C80.9276 310.777 86.5836 307.563 92.8089 306.632C99.0341 305.7 105.383 307.118 110.621 310.609L121.981 321.889Z" fill="#FF6B51"/>
<path d="M346.981 311.889C350.472 317.141 351.889 323.501 350.958 329.739C350.027 335.976 346.814 341.645 341.941 345.649L301.941 305.649C305.928 300.777 311.584 297.563 317.809 296.632C324.034 295.7 330.383 297.118 335.621 300.609L346.981 311.889Z" fill="#FF6B51"/>
<path d="M165.741 212.921C170.992 209.43 177.353 208.013 183.59 208.944C189.828 209.876 195.497 213.089 199.501 217.961L159.501 257.961C154.629 253.975 151.415 248.319 150.484 242.094C149.552 235.868 150.97 229.519 154.461 224.281L165.741 212.921Z" fill="#FF6B51"/>
<path d="M272.036 212.532C274.402 218.378 274.515 224.893 272.351 230.817C270.188 236.741 265.903 241.65 260.326 244.595L229.163 197.384C234.046 193.411 240.232 191.397 246.517 191.733C252.803 192.069 258.739 194.732 263.17 199.203L272.036 212.532Z" fill="#FF6B51"/>
<path d="M346.179 221.262C342.664 216.025 341.219 209.671 342.122 203.43C343.026 197.188 346.214 191.505 351.068 187.48L391.246 227.302C387.281 232.191 381.639 235.43 375.418 236.389C369.197 237.348 362.842 235.959 357.589 232.491L346.179 221.262Z" fill="#FF6B51"/>
<path d="M416.942 344.811C416.088 351.06 412.945 356.768 408.123 360.832C403.3 364.896 397.141 367.024 390.839 366.806L387.278 310.35C393.489 309.331 399.858 310.659 405.144 314.077C410.43 317.494 414.256 322.756 415.877 328.838L416.942 344.811Z" fill="#FF6B51"/>
<path d="M395.942 154.812C395.088 161.06 391.945 166.769 387.123 170.833C382.3 174.896 376.141 177.025 369.839 176.807L366.278 120.35C372.49 119.332 378.858 120.66 384.144 124.077C389.43 127.495 393.256 132.756 394.878 138.838L395.942 154.812Z" fill="#FF6B51"/>
<path d="M92.1487 194.798C96.1997 189.965 101.9 186.808 108.146 185.938C114.392 185.068 120.739 186.548 125.957 190.09L98.8947 239.765C93.0952 237.318 88.4134 232.802 85.7601 227.094C83.1068 221.386 82.6719 214.895 84.5399 208.884L92.1487 194.798Z" fill="#FF6B51"/>
<path d="M213.544 128.89C219.839 128.505 226.052 130.469 230.981 134.403C235.91 138.337 239.203 143.961 240.222 150.184L185.555 164.725C183.34 158.833 183.396 152.328 185.713 146.475C188.03 140.622 192.441 135.84 198.088 133.06L213.544 128.89Z" fill="#FF6B51"/>
<path d="M361.68 381.68L342.32 401.04C340.015 399.625 337.892 397.933 336 396C334.093 394.114 332.402 392.021 330.96 389.76L350.32 370.32L361.68 381.68Z" fill="#FFA08F"/>
<path d="M136.41 385.68L117.05 405.04C114.744 403.625 112.622 401.933 110.73 400C108.822 398.114 107.132 396.021 105.69 393.76L125.05 374.32L136.41 385.68Z" fill="#FFA08F"/>
<path d="M91.318 330.026L110.678 310.666C112.983 312.08 115.106 313.773 116.998 315.706C118.906 317.591 120.596 319.685 122.038 321.946L102.678 341.386L91.318 330.026Z" fill="#FFA08F"/>
<path d="M316.318 320.026L335.678 300.666C337.984 302.081 340.106 303.773 341.998 305.706C343.906 307.592 345.596 309.685 347.038 311.946L327.678 331.386L316.318 320.026Z" fill="#FFA08F"/>
<path d="M174.054 243.418L154.694 224.058C156.108 221.753 157.801 219.63 159.734 217.738C161.619 215.83 163.712 214.14 165.974 212.698L185.414 232.058L174.054 243.418Z" fill="#FFA08F"/>
<path d="M240.491 214.559L263.341 199.476C265.316 201.324 267.056 203.408 268.522 205.681C270.013 207.911 271.249 210.301 272.208 212.806L249.341 227.967L240.491 214.559Z" fill="#FFA08F"/>
<path d="M376.638 212.813L357.364 232.259C355.053 230.854 352.922 229.171 351.022 227.247C349.106 225.37 347.406 223.284 345.954 221.029L365.228 201.503L376.638 212.813Z" fill="#FFA08F"/>
<path d="M388.566 330.884L415.89 329.16C416.685 331.746 417.158 334.419 417.299 337.12C417.484 339.796 417.368 342.484 416.955 345.134L389.577 346.917L388.566 330.884Z" fill="#FFA08F"/>
<path d="M367.566 140.884L394.89 139.161C395.685 141.746 396.158 144.42 396.299 147.121C396.484 149.797 396.368 152.485 395.955 155.135L368.577 156.918L367.566 140.884Z" fill="#FFA08F"/>
<path d="M108.744 221.701L84.7007 208.604C85.4057 205.992 86.4294 203.478 87.7487 201.117C89.0179 198.754 90.5477 196.541 92.3095 194.518L116.429 207.594L108.744 221.701Z" fill="#FFA08F"/>
<path d="M205.44 159.443L198.402 132.984C200.782 131.699 203.311 130.712 205.932 130.045C208.52 129.34 211.178 128.927 213.858 128.814L220.965 155.314L205.44 159.443Z" fill="#FFA08F"/>
<path d="M221.256 379.999C238.518 380.1 255.14 373.475 267.6 361.527C280.059 349.58 287.376 333.25 288 315.999H160C159.695 324.255 161.05 332.489 163.985 340.211C166.921 347.934 171.377 354.989 177.09 360.957C182.802 366.926 189.655 371.686 197.242 374.957C204.828 378.228 212.994 379.943 221.256 379.999V379.999Z" fill="#EF3A42"/>
<path d="M216 347.279C209.01 345.625 202.806 341.609 198.433 335.911C194.061 330.212 191.789 323.179 192 315.999H256C255.819 323.006 253.387 329.769 249.065 335.287C244.743 340.805 238.76 344.785 232 346.639L216 347.279Z" fill="#FF6B51"/>
<path d="M232 315.999V346.639C228.96 347.533 225.809 347.991 222.64 347.999C220.407 348.011 218.179 347.769 216 347.279V315.999H232Z" fill="#FFA08F"/>
<path d="M221.256 444C238.518 444.101 255.14 437.475 267.6 425.528C280.059 413.58 287.376 397.251 288 380H160C159.695 388.256 161.05 396.489 163.985 404.212C166.921 411.934 171.377 418.989 177.09 424.958C182.802 430.926 189.655 435.687 197.242 438.958C204.828 442.229 212.994 443.943 221.256 444V444Z" fill="#EF3A42"/>
<path d="M216 411.28C209.01 409.625 202.806 405.61 198.433 399.911C194.061 394.212 191.789 387.18 192 380H256C255.819 387.007 253.387 393.769 249.065 399.287C244.743 404.805 238.76 408.786 232 410.64L216 411.28Z" fill="#FF6B51"/>
<path d="M232 380V410.64C228.96 411.533 225.809 411.991 222.64 412C220.407 412.011 218.179 411.77 216 411.28V380H232Z" fill="#FFA08F"/>
<path d="M70.724 330.12C69.1348 304.922 48.4777 284.324 23.5641 288.556L29.1599 377.28C54.0734 373.048 72.3132 355.318 70.724 330.12Z" fill="#EF3A42"/>
<path d="M73.5719 87.4394C43.9278 106.686 32.992 146.032 55.2664 173.514L159.647 105.745C137.373 78.2623 103.216 68.1929 73.5719 87.4394Z" fill="#EF3A42"/>
<path d="M5.60804 248.037C13.0538 271.944 37.7934 286.943 60.8064 277.018L34.5889 192.839C11.5759 202.764 -1.83773 224.13 5.60804 248.037Z" fill="#EF3A42"/>
<path d="M411.426 197.778C399.693 217.763 404.829 244.041 425.954 253.618L467.265 183.25C446.14 173.674 423.158 177.794 411.426 197.778Z" fill="#EF3A42"/>
<path d="M221.059 23.2033C186.919 32.3505 164.364 66.3934 177.058 99.4129L297.269 67.2045C284.574 34.1849 255.199 14.0561 221.059 23.2033Z" fill="#EF3A42"/>
<path d="M281.548 427.452C253.845 434.875 235.541 462.5 245.842 489.294L343.39 463.158C333.089 436.363 309.252 420.029 281.548 427.452Z" fill="#EF3A42"/>
<path d="M173.812 439.198C150.858 438.938 130.788 456.277 132.943 479.151L213.766 480.067C211.611 457.192 196.766 439.458 173.812 439.198Z" fill="#EF3A42"/>
<path d="M46.249 337.156C45.6392 341.619 43.3943 345.698 39.9494 348.6C36.5044 351.503 32.1047 353.024 27.6025 352.868L25.059 312.539C29.4962 311.811 34.0454 312.76 37.8216 315.201C41.5977 317.642 44.3307 321.401 45.4889 325.745L46.249 337.156Z" fill="#FF6B51"/>
<path d="M98.9659 112.461C104.829 110.139 111.346 110.076 117.253 112.284C123.16 114.492 128.037 118.814 130.939 124.413L83.4933 155.217C79.5578 150.305 77.5906 144.104 77.9744 137.821C78.3581 131.538 81.0654 125.623 85.5696 121.226L98.9659 112.461Z" fill="#FF6B51"/>
<path d="M27.5402 235.513C27.0801 231.069 28.286 226.612 30.9241 223.007C33.5623 219.401 37.4449 216.903 41.8196 215.996L53.7367 254.26C49.6319 256.002 45.0256 256.156 40.814 254.69C36.6024 253.224 33.0867 250.244 30.951 246.329L27.5402 235.513Z" fill="#FF6B51"/>
<path d="M433.658 204.996C436.414 201.914 440.216 199.965 444.328 199.526C448.439 199.087 452.567 200.19 455.912 202.621L437.134 234.606C433.385 232.881 430.412 229.822 428.793 226.026C427.174 222.23 427.025 217.967 428.376 214.067L433.658 204.996Z" fill="#FF6B51"/>
<path d="M237.481 54.8456C243.775 54.4485 249.992 56.4017 254.928 60.3267C259.864 64.2518 263.167 69.8693 264.198 76.0908L209.557 90.7309C207.331 84.8429 207.376 78.3375 209.682 72.4806C211.988 66.6236 216.39 61.8339 222.033 59.0434L237.481 54.8456Z" fill="#FF6B51"/>
<path d="M294.874 453.129C299.982 452.807 305.027 454.392 309.032 457.577C313.037 460.762 315.718 465.32 316.554 470.369L272.214 482.249C270.408 477.471 270.445 472.192 272.316 467.439C274.187 462.686 277.759 458.8 282.338 456.535L294.874 453.129Z" fill="#FF6B51"/>
<path d="M178.539 461.864C182.545 462.718 186.091 465.029 188.491 468.348C190.89 471.667 191.972 475.759 191.526 479.831L154.789 479.415C154.428 475.343 155.596 471.282 158.064 468.023C160.532 464.764 164.125 462.539 168.142 461.783L178.539 461.864Z" fill="#FF6B51"/>
<path d="M25.9788 327.207L45.4981 325.976C46.0656 327.823 46.4036 329.733 46.5045 331.662C46.6364 333.573 46.5538 335.494 46.2582 337.387L26.7012 338.661L25.9788 327.207Z" fill="#FFA08F"/>
<path d="M100.754 144.02L85.8445 121.056C87.7074 119.095 89.8047 117.371 92.0889 115.923C94.3298 114.449 96.7287 113.231 99.2408 112.291L114.228 135.271L100.754 144.02Z" fill="#FFA08F"/>
<path d="M49.4074 240.342L30.8879 246.109C29.9076 244.463 29.1336 242.702 28.5835 240.867C28.0078 239.056 27.6367 237.186 27.4771 235.293L46.0229 229.475L49.4074 240.342Z" fill="#FFA08F"/>
<path d="M443.968 222.975L428.487 213.887C429.004 212.19 429.728 210.564 430.642 209.044C431.523 207.523 432.572 206.104 433.769 204.816L449.301 213.891L443.968 222.975Z" fill="#FFA08F"/>
<path d="M229.432 85.4134L222.346 58.967C224.724 57.6776 227.251 56.6858 229.871 56.0138C232.458 55.3045 235.116 54.887 237.795 54.7692L244.95 81.2556L229.432 85.4134Z" fill="#FFA08F"/>
<path d="M288.343 477.934L282.593 456.473C284.522 455.427 286.573 454.622 288.699 454.077C290.798 453.501 292.955 453.162 295.129 453.067L300.935 474.56L288.343 477.934Z" fill="#FFA08F"/>
<path d="M168.15 479.571L168.352 461.79C170.065 461.4 171.819 461.222 173.575 461.261C175.317 461.271 177.053 461.475 178.749 461.871L178.584 479.689L168.15 479.571Z" fill="#FFA08F"/>
<path d="M339.849 88.9013C311.725 67.4946 270.997 70.483 252.647 100.727L351.675 176.103C370.025 145.859 367.973 110.308 339.849 88.9013Z" fill="#EF3A42"/>
<path d="M324.869 121.251C329.034 125.986 331.293 132.099 331.208 138.405C331.124 144.71 328.702 150.76 324.411 155.382L279.399 121.121C282.694 115.758 287.867 111.813 293.911 110.053C299.954 108.293 306.436 108.845 312.096 111.6L324.869 121.251Z" fill="#FF6B51"/>
<path d="M295.766 133.588L312.348 111.802C314.823 112.893 317.154 114.285 319.288 115.947C321.432 117.558 323.388 119.405 325.121 121.453L308.549 143.318L295.766 133.588Z" fill="#FFA08F"/>
<path d="M219.153 239.465C183.809 239.465 153.211 266.51 156.928 301.69L281.379 301.69C277.662 266.51 254.497 239.465 219.153 239.465Z" fill="#EF3A42"/>
<path d="M227.01 274.266C233.192 275.511 238.692 279.007 242.444 284.076C246.196 289.144 247.933 295.425 247.318 301.702H190.75C190.124 295.438 191.851 289.166 195.594 284.106C199.337 279.045 204.829 275.558 211.001 274.323L227.01 274.266Z" fill="#FF6B51"/>
<path d="M211.129 301.703L211.129 274.324C213.759 273.694 216.457 273.39 219.161 273.419C221.844 273.403 224.519 273.687 227.138 274.267L227.194 301.703H211.129Z" fill="#FFA08F"/>
<path d="M156.534 81.3067L112.016 64.3768C123.833 29.0399 158.207 30.8435 173.917 36.1624L156.534 81.3067Z" fill="#EF3A42"/>
<path d="M156.629 81.5469L136.08 73.67C141.442 57.471 157.283 58.3787 164.533 60.8574L156.629 81.5469Z" fill="#FF6B51"/>
<path d="M156.641 81.5305L146.805 77.6104C149.15 70.1279 156.669 70.7435 160.135 71.9866L156.641 81.5305Z" fill="#FFA08F"/>
<path d="M284.818 166.75L267.679 153.059C277.835 139.226 292.655 144.856 298.795 149.399L284.818 166.75Z" fill="#EF3A42"/>
<path d="M284.826 166.868L276.923 160.522C281.555 154.173 288.374 156.8 291.204 158.908L284.826 166.868Z" fill="#FF6B51"/>
<path d="M284.833 166.863L281.072 163.759C283.154 160.808 286.364 162.136 287.709 163.169L284.833 166.863Z" fill="#FFA08F"/>
<path d="M299.857 155.983L321.05 161.642C317.301 178.388 301.468 179.182 294.02 177.485L299.857 155.983Z" fill="#EF3A42"/>
<path d="M299.802 155.878L309.587 158.518C307.894 166.192 300.594 166.523 297.155 165.729L299.802 155.878Z" fill="#FF6B51"/>
<path d="M299.797 155.886L304.488 157.218C303.766 160.757 300.292 160.829 298.646 160.423L299.797 155.886Z" fill="#FFA08F"/>
<path d="M212.503 210.198L238.864 217.236C234.201 238.066 214.508 239.053 205.244 236.942L212.503 210.198Z" fill="#EF3A42"/>
<path d="M212.435 210.067L224.607 213.351C222.5 222.896 213.42 223.308 209.144 222.32L212.435 210.067Z" fill="#FF6B51"/>
<path d="M212.429 210.077L218.264 211.734C217.366 216.136 213.046 216.226 210.997 215.72L212.429 210.077Z" fill="#FFA08F"/>
<path d="M104.992 443.046L126.451 448.775C122.656 465.731 106.624 466.534 99.0829 464.817L104.992 443.046Z" fill="#EF3A42"/>
<path d="M104.937 442.939L114.845 445.612C113.13 453.383 105.739 453.717 102.257 452.913L104.937 442.939Z" fill="#FF6B51"/>
<path d="M104.932 442.947L109.682 444.296C108.951 447.879 105.434 447.952 103.766 447.541L104.932 442.947Z" fill="#FFA08F"/>
<path d="M224.215 469.182L206.698 455.526C216.815 441.4 231.887 446.921 238.158 451.448L224.215 469.182Z" fill="#EF3A42"/>
<path d="M224.225 469.302L216.147 462.971C220.761 456.487 227.696 459.066 230.587 461.166L224.225 469.302Z" fill="#FF6B51"/>
<path d="M224.232 469.296L220.387 466.199C222.459 463.186 225.725 464.493 227.099 465.522L224.232 469.296Z" fill="#FFA08F"/>
<path d="M298.91 418.998L280.94 421.459C278.444 407.491 290.264 401.824 296.486 400.736L298.91 418.998Z" fill="#EF3A42"/>
<path d="M298.985 419.061L290.679 420.176C289.517 413.783 294.978 411.197 297.853 410.703L298.985 419.061Z" fill="#FF6B51"/>
<path d="M298.986 419.053L294.983 419.537C294.402 416.608 297.028 415.442 298.414 415.225L298.986 419.053Z" fill="#FFA08F"/>
<path d="M172.91 373.998L154.94 376.459C152.444 362.491 164.264 356.824 170.486 355.736L172.91 373.998Z" fill="#EF3A42"/>
<path d="M172.985 374.061L164.679 375.176C163.517 368.783 168.978 366.197 171.853 365.703L172.985 374.061Z" fill="#FF6B51"/>
<path d="M172.986 374.053L168.983 374.537C168.402 371.608 171.028 370.442 172.414 370.225L172.986 374.053Z" fill="#FFA08F"/>
<path d="M290.91 373.998L272.94 376.459C270.444 362.491 282.264 356.824 288.486 355.736L290.91 373.998Z" fill="#EF3A42"/>
<path d="M290.985 374.061L282.679 375.176C281.517 368.783 286.978 366.197 289.853 365.703L290.985 374.061Z" fill="#FF6B51"/>
<path d="M290.986 374.053L286.983 374.537C286.402 371.608 289.028 370.442 290.414 370.225L290.986 374.053Z" fill="#FFA08F"/>
<path d="M307.91 333.998L289.94 336.459C287.444 322.491 299.264 316.824 305.486 315.736L307.91 333.998Z" fill="#EF3A42"/>
<path d="M307.985 334.061L299.679 335.176C298.517 328.783 303.978 326.197 306.853 325.703L307.985 334.061Z" fill="#FF6B51"/>
<path d="M307.986 334.053L303.983 334.537C303.402 331.608 306.028 330.442 307.414 330.225L307.986 334.053Z" fill="#FFA08F"/>
</g>
<defs>
<clipPath id="clip0">
<rect width="512" height="512" fill="white"/>
</clipPath>
</defs>
</svg>
