<svg width="512" height="512" viewBox="0 0 512 512" fill="none" xmlns="http://www.w3.org/2000/svg">
<path d="M460.437 335.129H51.5624C23.0859 335.129 0 312.047 0 283.57C0 143.418 113.289 29.3989 253.441 29.0044C255.148 29.0005 256.851 29.0005 258.558 29.0044C398.71 29.3989 511.999 143.418 511.999 283.566C511.999 312.047 488.913 335.129 460.437 335.129Z" fill="url(#paint0_linear)"/>
<path d="M413.827 483.136H93.8358C42.0116 483.136 0 441.125 0 389.301V384.965C0 357.441 22.3125 335.129 49.8358 335.129H462.163C489.687 335.129 511.999 357.441 511.999 384.965C511.999 439.183 468.046 483.136 413.827 483.136Z" fill="url(#paint1_linear)"/>
<path d="M400.238 170.567V150.454C400.238 146.184 396.781 142.727 392.512 142.727C388.246 142.727 384.785 146.188 384.785 150.454V170.567C384.785 174.836 388.246 178.293 392.512 178.293C396.781 178.293 400.238 174.836 400.238 170.567Z" fill="#E57917"/>
<path d="M345.641 170.567V150.454C345.641 146.184 342.18 142.727 337.914 142.727C333.645 142.727 330.188 146.188 330.188 150.454V170.567C330.188 174.836 333.645 178.293 337.914 178.293C342.18 178.293 345.641 174.836 345.641 170.567Z" fill="#E57917"/>
<path d="M291.039 170.567V150.454C291.039 146.184 287.582 142.727 283.312 142.727C279.047 142.727 275.59 146.188 275.59 150.454V170.567C275.59 174.836 279.047 178.293 283.312 178.293C287.582 178.293 291.039 174.836 291.039 170.567Z" fill="#E57917"/>
<path d="M236.441 170.567V150.454C236.441 146.184 232.98 142.727 228.715 142.727C224.445 142.727 220.988 146.188 220.988 150.454V170.567C220.988 174.836 224.445 178.293 228.715 178.293C232.98 178.293 236.441 174.836 236.441 170.567Z" fill="#E57917"/>
<path d="M181.84 170.567V150.454C181.84 146.184 178.383 142.727 174.113 142.727C169.848 142.727 166.391 146.188 166.391 150.454V170.567C166.391 174.836 169.848 178.293 174.113 178.293C178.383 178.293 181.84 174.836 181.84 170.567Z" fill="#E57917"/>
<path d="M127.242 170.567V150.454C127.242 146.184 123.781 142.727 119.516 142.727C115.246 142.727 111.789 146.188 111.789 150.454V170.567C111.789 174.836 115.246 178.293 119.516 178.293C123.781 178.293 127.242 174.836 127.242 170.567Z" fill="#E57917"/>
<path d="M372.938 119.934V99.8207C372.938 95.5512 369.48 92.0942 365.215 92.0942C360.945 92.0942 357.488 95.5512 357.488 99.8207V119.934C357.488 124.204 360.945 127.661 365.215 127.661C369.48 127.661 372.938 124.2 372.938 119.934Z" fill="#E57917"/>
<path d="M318.34 119.934V99.8207C318.34 95.5512 314.883 92.0942 310.613 92.0942C306.348 92.0942 302.887 95.5512 302.887 99.8207V119.934C302.887 124.204 306.348 127.661 310.613 127.661C314.879 127.661 318.34 124.2 318.34 119.934Z" fill="#E57917"/>
<path d="M263.738 119.934V99.8207C263.738 95.5512 260.281 92.0942 256.016 92.0942C251.746 92.0942 248.289 95.5512 248.289 99.8207V119.934C248.289 124.204 251.746 127.661 256.016 127.661C260.281 127.661 263.738 124.2 263.738 119.934Z" fill="#E57917"/>
<path d="M209.141 119.934V99.8207C209.141 95.5512 205.68 92.0942 201.414 92.0942C197.148 92.0942 193.688 95.5512 193.688 99.8207V119.934C193.688 124.204 197.148 127.661 201.414 127.661C205.68 127.661 209.141 124.2 209.141 119.934Z" fill="#E57917"/>
<path d="M154.539 119.934V99.8207C154.539 95.5512 151.082 92.0942 146.816 92.0942C142.547 92.0942 139.09 95.5512 139.09 99.8207V119.934C139.09 124.204 142.547 127.661 146.816 127.661C151.082 127.661 154.539 124.2 154.539 119.934Z" fill="#E57917"/>
<defs>
<linearGradient id="paint0_linear" x1="256" y1="242" x2="255.999" y2="335.129" gradientUnits="userSpaceOnUse">
<stop stop-color="#FE9738"/>
<stop offset="1" stop-color="#EE7F13"/>
</linearGradient>
<linearGradient id="paint1_linear" x1="256" y1="409" x2="256" y2="483.136" gradientUnits="userSpaceOnUse">
<stop stop-color="#FE9738"/>
<stop offset="1" stop-color="#EA7A0B"/>
</linearGradient>
</defs>
</svg>
