<svg width="512" height="512" viewBox="0 0 512 512" fill="none" xmlns="http://www.w3.org/2000/svg">
<g clip-path="url(#clip0)">
<path d="M256 396.675C170.284 396.675 153.141 409.784 90.618 409.784C0.000961304 409.784 -16.896 297.072 14.591 231.939C58.773 140.545 159.377 102.216 256 102.216C352.623 102.216 453.227 140.545 497.41 231.941C528.896 297.073 511.999 409.786 421.383 409.786C358.86 409.786 341.716 396.675 256 396.675Z" fill="url(#paint0_linear)"/>
<path d="M146.049 165.898C103.802 186.209 112.667 177.77 81.8511 192.585C37.1882 214.057 17.8808 244.83 28.5 227.177C43.4007 202.407 90.1025 172.571 137.726 149.676C185.349 126.781 237.818 108.941 266.47 112.774C286.889 115.505 245.714 113.206 201.052 134.677C170.236 149.492 188.297 145.588 146.049 165.898Z" fill="#FFD99A"/>
</g>
<defs>
<linearGradient id="paint0_linear" x1="256" y1="102.216" x2="256" y2="409.786" gradientUnits="userSpaceOnUse">
<stop stop-color="#FFDA9F"/>
<stop offset="1" stop-color="#F3C270"/>
</linearGradient>
<clipPath id="clip0">
<rect width="512" height="512" fill="white"/>
</clipPath>
</defs>
</svg>
