<svg width="512" height="512" viewBox="0 0 512 512" fill="none" xmlns="http://www.w3.org/2000/svg">
<g clip-path="url(#clip0)">
<path fill-rule="evenodd" clip-rule="evenodd" d="M267.679 511.971C216.152 511.88 156.023 488.126 123.39 448.604C102.09 422.808 85.2929 393.312 72.6953 362.413C49.5977 354.015 30.8985 335.116 24.5977 311.417C20.3985 295.82 21.5977 279.019 27.5977 264.023C15.0001 254.12 7.02354 240.324 2.52355 224.425C-2.578 205.226 0.125119 185.128 10.0196 167.73C17.8204 154.234 27.8985 144.031 41.3985 137.433C38.6953 102.035 62.4922 68.7381 97.8905 59.1405C108.691 56.4413 119.789 55.8397 130.89 58.2421C141.086 31.2421 163.586 10.5429 191.484 3.04297C219.679 -4.45311 249.078 2.14453 270.976 20.1445C277.295 24.9466 282.763 30.6001 287.558 37.285C287.731 37.3703 287.905 37.4563 288.078 37.5429C313.273 2.74609 361.871 -12.2539 405.066 11.7461C428.163 24.3437 444.761 48.0389 450.163 73.5389C451.96 82.2381 452.261 88.5388 451.663 95.1365C487.359 107.738 511.956 141.336 511.956 180.031C511.956 213.027 493.659 242.425 466.663 257.722C466.859 257.951 467.059 258.183 467.261 258.418C468.914 260.342 470.725 262.451 472.062 264.324C486.761 284.421 484.96 303.917 481.659 318.616C479.863 326.417 472.062 331.218 463.964 329.718L415.566 320.116C394.57 316.218 373.269 321.32 356.773 334.816C340.273 348.316 330.972 369.413 330.972 390.413C330.972 397.612 331.574 403.608 333.675 411.108C339.671 435.409 334.574 461.307 319.273 481.104C318.707 481.827 318.151 482.538 317.604 483.238C309.746 493.287 303.75 500.956 296.179 506.003L276.379 487.702C277.444 491.698 274.723 495.694 272.002 499.69C271.659 500.194 271.316 500.698 270.98 501.202C269.862 502.638 268.914 504.152 268.271 505.706L267.976 511.971C267.877 511.971 267.778 511.972 267.679 511.971Z" fill="url(#paint0_linear)"/>
<path d="M384.969 183.031L349.57 157.23L379.57 149.434C387.668 147.633 392.469 139.535 390.367 131.434C388.566 123.336 380.469 118.535 372.371 120.637C351.672 128.137 308.777 128.734 270.98 160.531C262.281 167.434 254.18 176.133 246.383 186.629L240.68 161.734C238.883 153.633 230.484 148.535 222.684 150.332C214.582 152.133 209.484 160.234 211.285 168.332L225.082 228.926C204.387 295.223 222.086 335.285 267.68 511.973H270.98C282.078 512.273 289.578 510.203 296.18 506.004C286.578 467.309 252.082 327.32 250.582 319.52L292.578 298.523C300.078 294.621 303.078 285.625 299.476 278.426C295.578 270.926 286.578 267.926 279.379 271.523L246.98 287.723C246.383 252.926 255.082 224.43 270.98 203.133C282.078 188.133 296.777 176.434 314.176 168.332L366.973 207.031C373.57 212.129 383.168 210.629 387.969 204.031C393.066 197.129 391.57 187.832 384.969 183.031Z" fill="#56C225"/>
</g>
<defs>
<linearGradient id="paint0_linear" x1="303" y1="512" x2="234" y2="95.5" gradientUnits="userSpaceOnUse">
<stop stop-color="#57C525"/>
<stop offset="1" stop-color="#75DB46"/>
</linearGradient>
<clipPath id="clip0">
<rect width="512" height="512" fill="white"/>
</clipPath>
</defs>
</svg>
