<svg width="512" height="512" viewBox="0 0 512 512" fill="none" xmlns="http://www.w3.org/2000/svg">
<g clip-path="url(#clip0)">
<path d="M205.092 446.971C270.941 418.273 217.54 342.839 311.283 298.383C394.323 259.003 481.137 247.032 465.841 127.537C450.641 8.789 237.712 -55.8 112.145 63.403C-18.6681 187.586 54.9969 512.385 205.092 446.971V446.971Z" fill="#FF7B8B"/>
<path d="M196.889 416.444C230.239 401.985 215.589 297 301.993 266.688C381.748 238.708 445.267 204.143 441.199 139.31C435.669 51.189 242.929 -16.898 133.83 90.092C27.4059 194.458 78.6789 467.697 196.889 416.444V416.444Z" fill="url(#paint0_linear)"/>
<path d="M311.283 298.383C217.54 342.839 270.941 418.272 205.092 446.971C109.434 488.66 44.8271 371.857 44.4021 249.502L44.3931 249.499L44.5631 300.358L44.6001 300.349C46.1071 411.43 103.951 522.726 203.809 511.171C274.321 503.012 270.554 381.427 311.283 356.642C384.192 312.275 468.15 306.007 467.512 209.641L467.529 209.639L467.532 158.535C464.824 249.527 386.507 262.71 311.283 298.383Z" fill="#994E37"/>
<path d="M302.013 338.103C248.676 374.673 265.052 484.472 194.539 492.632C138.971 499.062 96.422 467.441 69.342 418.994C95.439 477.663 141.425 518.391 203.809 511.172C274.321 503.012 270.554 381.428 311.283 356.643C384.192 312.276 468.151 306.008 467.512 209.643L467.529 209.641L467.532 158.537C467.607 286.985 372.404 289.84 302.013 338.103V338.103Z" fill="#8C4534"/>
<path d="M265.313 174.669C289.087 174.669 308.36 162.099 308.36 146.594C308.36 131.089 289.087 118.519 265.313 118.519C241.539 118.519 222.266 131.089 222.266 146.594C222.266 162.099 241.539 174.669 265.313 174.669Z" fill="#F4E9D3"/>
<path d="M265.313 156.129C246.521 156.129 230.551 148.273 224.679 137.324C223.122 140.227 222.266 143.344 222.266 146.594C222.266 162.099 241.539 174.669 265.314 174.669C289.088 174.669 308.361 162.1 308.361 146.594C308.361 143.344 307.505 140.227 305.948 137.324C300.075 148.273 284.105 156.129 265.313 156.129Z" fill="#E5D6BE"/>
</g>
<defs>
<linearGradient id="paint0_linear" x1="179" y1="423" x2="330.5" y2="54" gradientUnits="userSpaceOnUse">
<stop stop-color="#FF4755"/>
<stop offset="1" stop-color="#FF4755" stop-opacity="0"/>
</linearGradient>
<clipPath id="clip0">
<rect width="512" height="512" fill="white"/>
</clipPath>
</defs>
</svg>
