<svg width="512" height="512" viewBox="0 0 512 512" fill="none" xmlns="http://www.w3.org/2000/svg">
<g clip-path="url(#clip0)">
<path d="M496.156 280.647C496.156 307.039 491.57 332.388 483.12 356.023C453.133 439.869 374.534 501.909 279.759 510.876C271.95 511.62 264.017 512.002 256.001 512.002C123.368 512.002 15.846 408.416 15.846 280.648C15.846 238.1 27.777 202.452 48.581 173.829C65.656 150.35 88.702 131.601 116.034 117.646C117.305 116.995 118.596 116.355 119.887 115.725C158.572 96.884 205.469 87.37 256.001 87.37C264.017 87.37 271.94 87.608 279.759 88.093C319.797 90.531 356.932 99.249 388.748 114.124C390.039 114.713 391.32 115.333 392.591 115.952C455.168 146.608 496.156 201.759 496.156 280.647Z" fill="url(#paint0_linear)"/>
<path d="M395.173 193.609L341.479 145.421C334.62 139.254 337.285 127.757 346.127 125.412L385.891 114.877C386.857 114.621 386.977 113.288 386.068 112.875C355.076 98.783 319.038 89.202 280.447 86.765L280.605 24.606C280.605 11.072 269.532 0 255.999 0C242.466 0 231.394 11.072 231.394 24.605L231.236 86.777C192.437 89.241 156.496 98.807 125.409 113.104C123.575 113.947 123.857 116.64 125.823 117.095L159.684 124.945C168.929 127.083 171.708 139.169 164.363 145.295L113.252 187.957C108.552 191.872 112.653 199.537 118.417 197.595L218.212 163.879C224.379 161.803 231 165.418 232.736 171.812L250.317 236.631C251.815 242.137 259.469 242.075 260.874 236.538L277.164 172.37C278.868 165.635 285.934 161.937 292.276 164.447L389.592 203.028C395.286 205.292 399.759 197.74 395.173 193.609Z" fill="url(#paint1_linear)"/>
</g>
<defs>
<linearGradient id="paint0_linear" x1="256" y1="492" x2="256" y2="196.5" gradientUnits="userSpaceOnUse">
<stop stop-color="#EF3D45"/>
<stop offset="0.869459" stop-color="#FF5B66"/>
</linearGradient>
<linearGradient id="paint1_linear" x1="276" y1="9" x2="178" y2="248" gradientUnits="userSpaceOnUse">
<stop stop-color="#4D6707"/>
<stop offset="1" stop-color="#738611"/>
</linearGradient>
<clipPath id="clip0">
<rect width="512.001" height="512.001" fill="white"/>
</clipPath>
</defs>
</svg>
