<svg width="512" height="512" viewBox="0 0 512 512" fill="none" xmlns="http://www.w3.org/2000/svg">
<g clip-path="url(#clip0)">
<path d="M477.434 399.482H34.5661C15.476 399.482 0 384.007 0 364.916V358.11C0 339.02 15.476 323.544 34.5661 323.544H477.435C496.525 323.544 512.001 339.02 512.001 358.11V364.916C512 384.007 496.525 399.482 477.434 399.482V399.482Z" fill="#FF3D46"/>
<path d="M477.434 399.482H256H34.5661C34.5661 399.482 19.2934 473.229 106.204 502.241C121.091 507.211 136.634 509.525 152.221 509.525H256.001H359.781C375.368 509.525 390.911 507.211 405.798 502.241C492.707 473.229 477.434 399.482 477.434 399.482V399.482Z" fill="url(#paint0_linear)"/>
<path d="M405.796 502.239C390.905 507.214 375.364 509.531 359.781 509.531H336.32C351.913 509.531 367.454 507.214 382.346 502.239C469.247 473.227 453.974 399.488 453.974 399.488H477.435C477.435 399.487 492.709 473.227 405.796 502.239V502.239Z" fill="url(#paint1_linear)"/>
<path d="M478.245 337.312C478.245 354.57 458.191 363.926 444.859 352.968C439.378 348.463 432.906 344.894 422.648 344.894C394.855 344.894 394.855 366.91 367.06 366.91C339.265 366.91 339.265 344.894 311.471 344.894C283.677 344.894 283.677 366.91 255.883 366.91C228.091 366.91 228.091 344.894 200.297 344.894C172.502 344.894 172.502 366.91 144.708 366.91C116.914 366.91 116.914 344.894 89.1205 344.894C78.8676 344.894 72.3973 348.462 66.9179 352.964C53.5844 363.922 33.5312 354.568 33.5312 337.309V296.466H478.242V337.312H478.245Z" fill="#65CF35"/>
<path d="M33.7556 263.741V296.77H81.4309C91.3488 296.77 99.3894 304.811 99.3894 314.729V409.856C99.3894 422.537 109.669 432.817 122.35 432.817C135.03 432.817 145.309 422.537 145.309 409.856V314.729C145.309 304.811 153.35 296.77 163.268 296.77H478.246V263.741H33.7556Z" fill="#FFCB72"/>
<path d="M477.434 266.002H34.5661C15.476 266.002 0 250.527 0 231.436V224.63C0 205.54 15.476 190.064 34.5661 190.064H477.435C496.525 190.064 512.001 205.54 512.001 224.63V231.436C512 250.527 496.525 266.002 477.434 266.002V266.002Z" fill="#A55A3C"/>
<path d="M256 2.47559C83.3591 4.974 25.3541 98.6228 6.20522 153.037C-0.356861 171.682 13.6337 191.195 33.3997 191.195H256H478.598C498.511 191.195 512.321 171.486 505.68 152.713C486.416 98.2519 428.299 4.96902 256 2.47559V2.47559Z" fill="url(#paint2_linear)"/>
<path d="M184.738 81.6423C183.538 81.6423 182.321 81.3522 181.19 80.7421C177.557 78.779 176.204 74.2418 178.167 70.6088L184.868 58.2105C186.831 54.5775 191.368 53.2246 195.001 55.1876C198.634 57.1507 199.987 61.6879 198.024 65.3209L191.323 77.7192C189.971 80.2216 187.397 81.6423 184.738 81.6423V81.6423Z" fill="#E57917"/>
<path d="M255.907 82.4888C251.778 82.4888 248.43 79.1409 248.43 75.0114V60.9182C248.43 56.7888 251.778 53.4409 255.907 53.4409C260.037 53.4409 263.385 56.7888 263.385 60.9182V75.0114C263.385 79.1409 260.037 82.4888 255.907 82.4888Z" fill="#E57917"/>
<path d="M327.262 81.5386C324.682 81.5386 322.173 80.2027 320.786 77.8109L313.716 65.6189C311.644 62.0468 312.86 57.4717 316.432 55.3999C320.005 53.3282 324.58 54.5445 326.651 58.1167L333.722 70.3087C335.794 73.8809 334.577 78.456 331.005 80.5277C329.825 81.2136 328.536 81.5386 327.262 81.5386V81.5386Z" fill="#E57917"/>
</g>
<defs>
<linearGradient id="paint0_linear" x1="256" y1="455" x2="256" y2="509.525" gradientUnits="userSpaceOnUse">
<stop stop-color="#FE9738"/>
<stop offset="1" stop-color="#F18319"/>
</linearGradient>
<linearGradient id="paint1_linear" x1="478" y1="455" x2="456" y2="436" gradientUnits="userSpaceOnUse">
<stop stop-color="#FE860A"/>
<stop offset="1" stop-color="#FE860A" stop-opacity="0"/>
</linearGradient>
<linearGradient id="paint2_linear" x1="256" y1="118.5" x2="255.966" y2="191.195" gradientUnits="userSpaceOnUse">
<stop stop-color="#FE9738"/>
<stop offset="1" stop-color="#F18319"/>
</linearGradient>
<clipPath id="clip0">
<rect width="512" height="512" fill="white"/>
</clipPath>
</defs>
</svg>
