<svg width="469" height="469" viewBox="0 0 469 469" fill="none" xmlns="http://www.w3.org/2000/svg">
<path d="M234.146 468.292C363.461 468.292 468.292 363.461 468.292 234.146C468.292 104.831 363.461 0 234.146 0C104.831 0 0 104.831 0 234.146C0 363.461 104.831 468.292 234.146 468.292Z" fill="url(#paint0_linear)"/>
<path d="M234.146 433.42C344.202 433.42 433.42 344.202 433.42 234.146C433.42 124.09 344.202 34.8721 234.146 34.8721C124.09 34.8721 34.8719 124.09 34.8719 234.146C34.8719 344.202 124.09 433.42 234.146 433.42Z" fill="url(#paint1_linear)"/>
<path d="M249.092 119.564C232.607 119.564 219.201 106.155 219.201 89.673C219.201 73.191 232.607 59.782 249.092 59.782C265.577 59.782 278.983 73.191 278.983 89.673C278.983 106.155 265.577 119.564 249.092 119.564ZM249.092 74.728C240.853 74.728 234.146 81.431 234.146 89.674C234.146 97.917 240.853 104.62 249.092 104.62C257.331 104.62 264.038 97.917 264.038 89.674C264.038 81.431 257.331 74.728 249.092 74.728Z" fill="#E56353"/>
<path d="M302.649 388.583C286.164 388.583 272.758 375.174 272.758 358.692C272.758 342.21 286.164 328.801 302.649 328.801C319.134 328.801 332.54 342.21 332.54 358.692C332.54 375.174 319.134 388.583 302.649 388.583ZM302.649 343.747C294.41 343.747 287.704 350.45 287.704 358.693C287.704 366.936 294.411 373.639 302.649 373.639C310.888 373.639 317.594 366.936 317.594 358.693C317.594 350.45 310.888 343.747 302.649 343.747Z" fill="#E56353"/>
<path d="M120.274 166.313C103.789 166.313 90.3831 152.904 90.3831 136.422C90.3831 119.94 103.789 106.531 120.274 106.531C136.759 106.531 150.165 119.94 150.165 136.422C150.165 152.904 136.76 166.313 120.274 166.313ZM120.274 121.476C112.035 121.476 105.328 128.179 105.328 136.422C105.328 144.665 112.035 151.368 120.274 151.368C128.513 151.368 135.22 144.665 135.22 136.422C135.22 128.179 128.513 121.476 120.274 121.476Z" fill="#E56353"/>
<path d="M385.47 241.619C368.985 241.619 355.579 228.21 355.579 211.728C355.579 195.246 368.985 181.837 385.47 181.837C401.955 181.837 415.361 195.246 415.361 211.728C415.361 228.21 401.955 241.619 385.47 241.619ZM385.47 196.783C377.231 196.783 370.524 203.486 370.524 211.729C370.524 219.972 377.231 226.675 385.47 226.675C393.709 226.675 400.415 219.972 400.415 211.729C400.415 203.485 393.709 196.783 385.47 196.783Z" fill="#E56353"/>
<path d="M218.578 300.041C202.093 300.041 188.687 286.632 188.687 270.15C188.687 253.668 202.093 240.259 218.578 240.259C235.063 240.259 248.469 253.668 248.469 270.15C248.469 286.632 235.063 300.041 218.578 300.041ZM218.578 255.205C210.339 255.205 203.632 261.908 203.632 270.15C203.632 278.393 210.339 285.095 218.578 285.095C226.817 285.095 233.523 278.392 233.523 270.15C233.524 261.908 226.817 255.205 218.578 255.205Z" fill="#E56353"/>
<path d="M158.887 404.649C142.402 404.649 128.996 391.24 128.996 374.758C128.996 358.276 142.402 344.867 158.887 344.867C175.372 344.867 188.778 358.276 188.778 374.758C188.778 391.24 175.372 404.649 158.887 404.649ZM158.887 359.813C150.648 359.813 143.941 366.516 143.941 374.759C143.941 383.002 150.648 389.705 158.887 389.705C167.126 389.705 173.833 383.002 173.833 374.759C173.833 366.515 167.126 359.813 158.887 359.813Z" fill="#E56353"/>
<path d="M83.064 264.039C66.579 264.039 53.173 250.63 53.173 234.148C53.173 217.666 66.579 204.257 83.064 204.257C99.549 204.257 112.955 217.666 112.955 234.148C112.955 250.63 99.549 264.039 83.064 264.039ZM83.064 219.202C74.825 219.202 68.118 225.905 68.118 234.148C68.118 242.391 74.825 249.093 83.064 249.093C91.303 249.093 98.01 242.39 98.01 234.148C98.009 225.905 91.303 219.202 83.064 219.202Z" fill="#E56353"/>
<path d="M189.403 105.241C198 105.241 204.969 98.2718 204.969 89.6749C204.969 81.078 198 74.1089 189.403 74.1089C180.806 74.1089 173.837 81.078 173.837 89.6749C173.837 98.2718 180.806 105.241 189.403 105.241Z" fill="#44C4A1"/>
<path d="M234.146 183.127C242.743 183.127 249.712 176.158 249.712 167.561C249.712 158.964 242.743 151.995 234.146 151.995C225.549 151.995 218.58 158.964 218.58 167.561C218.58 176.158 225.549 183.127 234.146 183.127Z" fill="#44C4A1"/>
<path d="M158.889 270.13C167.486 270.13 174.455 263.161 174.455 254.564C174.455 245.967 167.486 238.998 158.889 238.998C150.292 238.998 143.323 245.967 143.323 254.564C143.323 263.161 150.292 270.13 158.889 270.13Z" fill="#44C4A1"/>
<path d="M242.263 385.436C250.86 385.436 257.829 378.467 257.829 369.87C257.829 361.273 250.86 354.304 242.263 354.304C233.666 354.304 226.697 361.273 226.697 369.87C226.697 378.467 233.666 385.436 242.263 385.436Z" fill="#44C4A1"/>
<path d="M113.427 336.272C122.024 336.272 128.993 329.303 128.993 320.706C128.993 312.109 122.024 305.14 113.427 305.14C104.83 305.14 97.861 312.109 97.861 320.706C97.861 329.303 104.83 336.272 113.427 336.272Z" fill="#44C4A1"/>
<path d="M309.51 120.807C318.107 120.807 325.076 113.838 325.076 105.241C325.076 96.6441 318.107 89.675 309.51 89.675C300.913 89.675 293.944 96.6441 293.944 105.241C293.944 113.838 300.913 120.807 309.51 120.807Z" fill="#64798A"/>
<path d="M355.59 167.555C364.187 167.555 371.156 160.586 371.156 151.989C371.156 143.392 364.187 136.423 355.59 136.423C346.993 136.423 340.024 143.392 340.024 151.989C340.024 160.586 346.993 167.555 355.59 167.555Z" fill="#64798A"/>
<path d="M409.163 285.715C417.76 285.715 424.729 278.746 424.729 270.149C424.729 261.552 417.76 254.583 409.163 254.583C400.566 254.583 393.597 261.552 393.597 270.149C393.597 278.746 400.566 285.715 409.163 285.715Z" fill="#64798A"/>
<path d="M293.925 227.297C302.522 227.297 309.491 220.328 309.491 211.731C309.491 203.134 302.522 196.165 293.925 196.165C285.328 196.165 278.359 203.134 278.359 211.731C278.359 220.328 285.328 227.297 293.925 227.297Z" fill="#64798A"/>
<path d="M166.962 198.693C175.559 198.693 182.528 191.724 182.528 183.127C182.528 174.53 175.559 167.561 166.962 167.561C158.365 167.561 151.396 174.53 151.396 183.127C151.396 191.724 158.365 198.693 166.962 198.693Z" fill="#64798A"/>
<path d="M355.59 330.665C364.187 330.665 371.156 323.696 371.156 315.099C371.156 306.502 364.187 299.533 355.59 299.533C346.993 299.533 340.024 306.502 340.024 315.099C340.024 323.696 346.993 330.665 355.59 330.665Z" fill="#64798A"/>
<path d="M287.095 320.705C295.692 320.705 302.661 313.736 302.661 305.139C302.661 296.542 295.692 289.573 287.095 289.573C278.498 289.573 271.529 296.542 271.529 305.139C271.529 313.736 278.498 320.705 287.095 320.705Z" fill="#64798A"/>
<defs>
<linearGradient id="paint0_linear" x1="73" y1="406" x2="417" y2="93" gradientUnits="userSpaceOnUse">
<stop stop-color="#DC8744"/>
<stop offset="1" stop-color="#D3772E"/>
</linearGradient>
<linearGradient id="paint1_linear" x1="67" y1="348" x2="397" y2="107" gradientUnits="userSpaceOnUse">
<stop stop-color="#FCD462"/>
<stop offset="1" stop-color="#FCD462" stop-opacity="0.62"/>
</linearGradient>
</defs>
</svg>
